# xmcd CD database file
#
# Track frame offsets:
#	150
#	19836
#	40597
#	55450
#	84929
#	104082
#	124348
#	144260
#
# Disc length: 2215 seconds
#
# Revision: 1
# Processed by: cddbd v1.5.1PL0 Copyright (c) Steve Scherf et al.
# Submitted via: CDex 1.51
#
DISCID=6708a508
DTITLE=Simon Høirup Band - Strongly Related
DYEAR=2002
DGENRE=Blues
TTITLE0=Aesthetic wave
TTITLE1=Life wouldn't be the same
TTITLE2=Cry baby cry
TTITLE3=BluesEyes
TTITLE4=Just like that
TTITLE5=You are something special
TTITLE6=Space-place
TTITLE7=Admiration
EXTD=YEAR: 2002
EXTT0=
EXTT1=
EXTT2=
EXTT3=
EXTT4=
EXTT5=
EXTT6=
EXTT7=
PLAYORDER=
